<svg width="47" height="60" viewBox="0 0 47 60" fill="none" xmlns="http://www.w3.org/2000/svg">
<path d="M18.1992 14.2281C18.7311 13.9919 22.672 12.1062 23.8083 7.96258C24.3222 6.00285 24.1807 3.93026 23.4054 2.05737C21.5101 2.80263 19.9104 4.14045 18.848 5.86874C16.6398 9.55599 18.0018 13.6836 18.1992 14.2281Z" fill="#8FCA1E"/>
<path d="M21.983 5.84869C19.948 8.23085 18.6062 11.1199 18.1025 14.2041C20.3552 11.9662 21.731 9.00375 21.983 5.84869Z" fill="#BCDF78"/>
<path d="M30.268 15.9287L9.84143 51.466L14.0404 53.8485L34.4669 18.3111L30.268 15.9287Z" fill="#453D3B"/>
<path d="M21.04 40.0108L30.6142 45.2995C29.7816 47.647 28.5435 49.8323 26.9554 51.7572C25.9641 52.9582 21.032 58.9075 13.4122 59.0956C11.4176 59.1437 9.49951 59.1917 7.66608 58.0107C2.60097 54.7518 3.20137 45.3395 5.02674 39.6385C5.80021 37.2495 6.96567 35.004 8.47601 32.9926L15.3866 36.836C14.073 40.4926 12.758 44.1478 11.4417 47.8017C11.8084 48.3382 12.1791 48.8746 12.5458 49.4031C14.5983 46.7946 16.7894 44.2969 19.1099 41.9205C19.7546 41.2719 20.3953 40.6314 21.04 40.0108Z" fill="#453D3B"/>
<path d="M13.0254 59.9924C20.0288 59.9924 25.7063 59.5999 25.7063 59.1157C25.7063 58.6314 20.0288 58.2389 13.0254 58.2389C6.02191 58.2389 0.344482 58.6314 0.344482 59.1157C0.344482 59.5999 6.02191 59.9924 13.0254 59.9924Z" fill="#453D3B"/>
<path d="M38.4677 18.0674C38.2203 18.0662 37.9774 18.0014 37.7626 17.8793L29.3006 13.023C29.0702 12.8919 28.882 12.6985 28.7579 12.4654C28.6338 12.2322 28.5788 11.9688 28.5994 11.7058L29.2361 3.20634C29.2535 2.96847 29.3318 2.73897 29.4634 2.53954C29.5951 2.34012 29.7758 2.17738 29.9884 2.06673C30.2011 1.95608 30.4386 1.90119 30.6786 1.90725C30.9185 1.91331 31.153 1.98012 31.3597 2.10136L45.5959 10.4527C45.7929 10.5688 45.9585 10.7308 46.0783 10.9247C46.1982 11.1186 46.2687 11.3386 46.2838 11.5657C46.2988 11.7927 46.258 12.02 46.1649 12.2279C46.0717 12.4358 45.929 12.618 45.7491 12.7588L39.3421 17.7672C39.0922 17.9607 38.7846 18.0664 38.4677 18.0674ZM31.4926 11.0372L38.3428 14.9767L42.3723 11.8219L31.8956 5.6605L31.4926 11.0372Z" fill="#453D3B"/>
<path d="M21.5398 29.5776C21.5398 29.5776 23.2403 30.5705 23.2403 31.3191L23.9978 28.5967L21.5398 29.5776Z" fill="#FEFEFE"/>
<path d="M28.4303 28.1123L27.165 30.4704L27.0401 30.6986C26.8582 31.0355 26.5857 31.3156 26.2531 31.5078C25.9204 31.7 25.5406 31.7967 25.156 31.7872C24.7713 31.7776 24.3968 31.6622 24.0743 31.4538C23.7517 31.2453 23.4937 30.952 23.3289 30.6065C22.9376 29.7484 22.488 28.9178 21.983 28.1203C21.8702 27.9442 21.7292 27.76 21.5801 27.5679C21.431 27.3757 21.2819 27.1995 21.1328 27.0154C20.8266 26.6511 20.5002 26.3027 20.1456 25.9384C19.791 25.5741 19.3961 25.1898 18.9811 24.7374C18.5369 24.2409 18.164 23.6858 17.8729 23.0879C17.8004 22.9358 17.7319 22.7876 17.6755 22.6395L17.5868 22.4113L17.5506 22.2031L17.5062 22.043C17.4216 21.6907 17.3894 21.4425 17.3451 21.1662L17.1234 19.5888C16.9824 18.5519 16.8373 17.499 16.7205 16.4501L16.5472 14.8927C16.4937 14.4158 16.3993 13.9444 16.2652 13.4834C15.6362 11.5621 14.5814 9.80551 13.1785 8.3429V8.3429C13.1525 8.31576 13.1323 8.28364 13.1191 8.24848C13.106 8.21333 13.1001 8.17588 13.102 8.13842C13.1039 8.10096 13.1135 8.06428 13.1301 8.0306C13.1467 7.99693 13.17 7.96697 13.1987 7.94255C13.2485 7.89973 13.3122 7.87616 13.378 7.87616C13.4439 7.87616 13.5075 7.89973 13.5573 7.94255C15.3288 9.24954 16.7669 10.9513 17.7561 12.9109C17.9979 13.4279 18.1974 13.9635 18.3524 14.5123L18.7554 16.0417L19.6137 19.0564L20.0529 20.5497C20.1254 20.7859 20.2101 21.0501 20.2745 21.2022C20.2745 21.2022 20.2745 21.2022 20.2745 21.2263V21.2223L20.3511 21.3544C20.4006 21.4397 20.4544 21.5226 20.5123 21.6026C20.7368 21.9188 21.0008 22.2053 21.298 22.4554C21.6204 22.7316 22.0233 23.0359 22.4505 23.3722C22.8776 23.7085 23.3249 24.0768 23.752 24.4651C23.9615 24.6613 24.1751 24.8655 24.3806 25.0616C24.5861 25.2578 24.7836 25.462 25.0052 25.7022C25.4073 26.1596 25.7826 26.6394 26.1294 27.1395C26.4598 27.6079 26.758 28.0643 27.0522 28.5167L23.2161 28.6568L24.2154 26.1706C24.3281 25.8878 24.4958 25.6297 24.7089 25.4113C24.9219 25.1928 25.1762 25.0182 25.4573 24.8974C25.7383 24.7765 26.0405 24.7119 26.3466 24.7071C26.6528 24.7023 26.9569 24.7575 27.2416 24.8695C27.5263 24.9815 27.786 25.1481 28.0058 25.3598C28.2257 25.5715 28.4015 25.8241 28.5231 26.1033C28.6447 26.3825 28.7098 26.6828 28.7146 26.987C28.7194 27.2911 28.6639 27.5933 28.5512 27.8761C28.5151 27.9569 28.4747 28.0358 28.4303 28.1123Z" fill="#453D3B"/>
<path d="M15.5559 10.749C15.5357 10.0884 15.1973 5.10801 11.2403 2.12538C9.363 0.735869 7.08159 -0.00892357 4.74067 0.00351012C4.7267 2.33015 5.47489 4.59817 6.87228 6.46521C9.89442 10.4127 14.887 10.729 15.5559 10.749Z" fill="#8FCA1E"/>
<path d="M9.22156 4.0351C9.86301 5.25416 10.649 6.39259 11.5627 7.42609C12.7189 8.72601 14.065 9.84613 15.556 10.749C14.8998 9.21611 13.9624 7.81779 12.7917 6.62538C11.7538 5.572 10.5474 4.69673 9.22156 4.0351V4.0351Z" fill="#BCDF78"/>
<path d="M16.9662 16.5261C16.5633 16.9585 13.5532 20.0932 9.23358 19.8811C7.1981 19.7615 5.25665 18.9888 3.70105 17.6791C5.00369 16.1225 6.77972 15.0281 8.76212 14.5604C12.981 13.6155 16.5109 16.1698 16.9662 16.5261Z" fill="#8FCA1E"/>
<path d="M16.9662 16.5261C13.8724 15.965 10.6831 16.2543 7.74268 17.3628C9.36284 17.7908 11.049 17.9157 12.7151 17.7311C14.1895 17.5658 15.626 17.1586 16.9662 16.5261V16.5261Z" fill="#BCDF78"/>
</svg>
