<svg width="26" height="36" viewBox="0 0 26 36" fill="none" xmlns="http://www.w3.org/2000/svg">
<path d="M13 0C5.81753 0 1.71057e-05 5.74186 1.71057e-05 12.8238C-0.00454041 15.5898 0.901716 18.2824 2.5824 20.4965L10.921 34.744C10.9694 34.8359 11.0178 34.9273 11.0773 35.0114L11.0957 35.0428L11.1008 35.04C11.3179 35.3384 11.6041 35.5812 11.9357 35.7482C12.2673 35.9152 12.6346 36.0015 13.0069 36C13.7242 36 14.3493 35.678 14.7794 35.1819L14.801 35.1942L14.8836 35.0532C15.0052 34.8914 15.1131 34.7186 15.191 34.528L23.3604 20.5688C25.0767 18.3421 26.0041 15.621 26 12.8238C26 5.74186 20.1825 0 13 0ZM12.8714 19.3251C9.33248 19.3251 6.46613 16.4962 6.46613 13.0066C6.46613 9.51748 9.33248 6.68815 12.8714 6.68815C16.4103 6.68815 19.2767 9.51748 19.2767 13.0066C19.2767 16.4957 16.4103 19.3251 12.8714 19.3251Z" fill="#8FCA1E"/>
</svg>
